<svg width="15" height="20" viewBox="0 0 15 20" fill="none" xmlns="http://www.w3.org/2000/svg">
<path d="M0 2.5C0 1.12109 1.22301 0 2.72727 0H12.2727C13.777 0 15 1.12109 15 2.5V17.5C15 18.8789 13.777 20 12.2727 20H2.72727C1.22301 20 0 18.8789 0 17.5V2.5ZM5.45455 17.5C5.45455 17.8438 5.76136 18.125 6.13636 18.125H8.86364C9.23864 18.125 9.54545 17.8438 9.54545 17.5C9.54545 17.1562 9.23864 16.875 8.86364 16.875H6.13636C5.76136 16.875 5.45455 17.1562 5.45455 17.5ZM12.2727 2.5H2.72727V15H12.2727V2.5Z" fill="black"/>
</svg>
